<svg xmlns="http://www.w3.org/2000/svg" version="1.1" xmlns:xlink="http://www.w3.org/1999/xlink" xmlns:svgjs="http://svgjs.dev/svgjs" width="2000" height="1500" viewBox="0 0 2000 1500"><rect width="2000" height="1500" fill="#ed1703"></rect><g transform="matrix(0.75,0,0,0.75,250,46.875)"><svg viewBox="0 0 384 360" data-background-color="#ed1703" preserveAspectRatio="xMidYMid meet" height="1875" width="2000" xmlns="http://www.w3.org/2000/svg" xmlns:xlink="http://www.w3.org/1999/xlink"><g id="tight-bounds" transform="matrix(1,0,0,1,0,0)"><svg viewBox="0 0 384 360" height="360" width="384"><g><svg></svg></g><g><svg viewBox="0 0 384 360" height="360" width="384"><g><path xmlns="http://www.w3.org/2000/svg" d="M362.354 145.441v-42.24c0-21.12-19.163-38.402-42.587-38.402h-93.208c-15.198 0-28.337-8.831-34.559-21.646-6.222 12.81-19.36 21.646-34.559 21.646h-93.208c-23.424 0-42.587 17.282-42.587 38.402v42.24c0 15.198-8.831 28.337-21.646 34.559 12.81 6.222 21.646 19.36 21.646 34.559v42.24c0 21.12 19.163 38.402 42.587 38.402h93.208c15.198 0 28.337 8.831 34.559 21.646 6.222-12.81 19.36-21.646 34.559-21.646h93.208c23.424 0 42.587-17.282 42.587-38.402v-42.24c0-15.198 8.831-28.337 21.646-34.559-12.81-6.222-21.646-19.36-21.646-34.559z" fill="#ffffff" fill-rule="nonzero" stroke="none" stroke-width="1" stroke-linecap="butt" stroke-linejoin="miter" stroke-miterlimit="10" stroke-dasharray="" stroke-dashoffset="0" font-family="none" font-weight="none" font-size="none" text-anchor="none" style="mix-blend-mode: normal" data-fill-palette-color="tertiary"></path></g><g transform="matrix(1,0,0,1,148.41629468625212,99)"><svg viewBox="0 0 87.16741062749576 162" height="162" width="87.16741062749576"><g><svg viewBox="0 0 87.16741062749576 162" height="162" width="87.16741062749576"><g><svg viewBox="0 0 115.231492987013 214.15689337922927" height="162" width="87.16741062749576"><g><svg viewBox="0 0 115.231492987013 214.15689337922927" height="214.15689337922927" width="115.231492987013"><g id="textblocktransform"><svg viewBox="0 0 115.231492987013 214.15689337922927" height="214.15689337922927" width="115.231492987013" id="textblock"><g><svg viewBox="0 0 115.231492987013 160.99884" height="160.99884" width="115.231492987013"><g transform="matrix(1,0,0,1,0,0)"><svg width="115.231492987013" viewBox="2.5999999046325684 -34.650001525878906 24.799999237060547 34.650001525878906" height="160.99884" data-palette-color="#ed1703"><path d="M17.45 0L8.35-27.85Q8.85-24.05 9.2-20.53 9.55-17 9.55-13.05L9.55-13.05 9.55 0 2.6 0 2.6-34.65 12.85-34.65 21.65-6.9Q20.45-14.6 20.45-21.4L20.45-21.4 20.45-34.65 27.4-34.65 27.4 0 17.45 0Z" opacity="1" transform="matrix(1,0,0,1,0,0)" fill="#ed1703" class="wordmark-text-0" data-fill-palette-color="quaternary" id="text-0"></path></svg></g></svg></g><g transform="matrix(1,0,0,1,0,199.00680215184002)"><svg viewBox="0 0 115.231492987013 15.150091227389277" height="15.150091227389277" width="115.231492987013"><g transform="matrix(1,0,0,1,0,0)"><svg width="115.231492987013" viewBox="1.5499999523162842 -35 342.6200256347656 45.04999923706055" height="15.150091227389277" data-palette-color="#ed1703"><path d="M41.2-34.5L45.85-34.5 38.85-1.3Q38.7-0.75 38.25-0.38 37.8 0 37.1 0L37.1 0 32.1 0Q31.45 0 30.98-0.38 30.5-0.75 30.4-1.35L30.4-1.35 25-27.3Q24.8-28.3 24.6-29.28 24.4-30.25 24.2-31.2L24.2-31.2 23.15-31.2Q22.95-30.25 22.78-29.25 22.6-28.25 22.4-27.3L22.4-27.3 17.05-1.35Q16.9-0.75 16.43-0.38 15.95 0 15.3 0L15.3 0 10.25 0Q9.6 0 9.13-0.38 8.65-0.75 8.55-1.3L8.55-1.3 1.55-34.5 6.2-34.5 11.6-7.6Q11.8-6.65 11.95-5.58 12.1-4.5 12.3-3.35L12.3-3.35 13.45-3.35Q13.65-4.5 13.85-5.55 14.05-6.6 14.25-7.6L14.25-7.6 19.6-33.05Q19.7-33.7 20.18-34.1 20.65-34.5 21.3-34.5L21.3-34.5 26.1-34.5Q26.75-34.5 27.2-34.1 27.65-33.7 27.8-33.05L27.8-33.05 33.15-7.6Q33.4-6.5 33.58-5.45 33.75-4.4 33.85-3.35L33.85-3.35 35.1-3.35Q35.25-4.4 35.4-5.48 35.55-6.55 35.75-7.55L35.75-7.55 41.2-34.5ZM60.4-24.95L60.4-24.95Q65.9-24.95 68.37-22.95 70.85-20.95 70.85-17L70.85-17Q70.9-13.75 69.5-11.93 68.1-10.1 65.05-10.1L65.05-10.1 50.85-10.1 50.85-13.4 63.95-13.4Q65.6-13.4 66.1-14.53 66.6-15.65 66.6-17L66.6-17Q66.55-19.35 65.2-20.35 63.85-21.35 60.6-21.35L60.6-21.35Q57.95-21.35 56.42-20.58 54.9-19.8 54.27-17.88 53.65-15.95 53.65-12.5L53.65-12.5Q53.65-8.6 54.42-6.55 55.2-4.5 56.9-3.75 58.6-3 61.4-3L61.4-3Q63.35-3 65.67-3.18 68-3.35 69.85-3.6L69.85-3.6 70.3-0.75Q69.15-0.3 67.47 0 65.8 0.3 64.02 0.45 62.25 0.6 60.85 0.6L60.85 0.6Q56.65 0.6 54.1-0.68 51.55-1.95 50.37-4.78 49.2-7.6 49.2-12.25L49.2-12.25Q49.2-17.05 50.37-19.83 51.55-22.6 54.02-23.78 56.5-24.95 60.4-24.95ZM90.35-24.95L90.35-24.95Q94.85-24.95 97-22.03 99.15-19.1 99.15-12.25L99.15-12.25Q99.15-9.1 98.62-6.7 98.1-4.3 96.87-2.68 95.65-1.05 93.57-0.23 91.5 0.6 88.35 0.6L88.35 0.6Q87.1 0.6 85.65 0.5 84.2 0.4 82.7 0.18 81.2-0.05 79.77-0.38 78.35-0.7 77.15-1.15L77.15-1.15 80.55-4.05Q81.9-3.65 83.22-3.4 84.55-3.15 85.82-3.08 87.1-3 88.25-3L88.25-3Q90.6-3.05 92.02-3.9 93.45-4.75 94.1-6.78 94.75-8.8 94.75-12.25L94.75-12.25Q94.75-15.6 94.25-17.57 93.75-19.55 92.47-20.4 91.2-21.25 88.85-21.25L88.85-21.25Q86.85-21.25 85.05-20.18 83.25-19.1 80.9-17.25L80.9-17.25 80.6-20.1Q82.1-21.7 83.67-22.78 85.25-23.85 86.95-24.4 88.65-24.95 90.35-24.95ZM77.15-35L81.4-35 81.4-25.9Q81.4-24.35 81.32-23.05 81.25-21.75 80.95-20.4L80.95-20.4 81.35-19.7 81.4-0.95 77.15-1.15 77.15-35ZM129.64-34.95L129.64-34.95Q133.34-34.95 135.92-34.05 138.49-33.15 140.07-31.1 141.64-29.05 142.37-25.65 143.09-22.25 143.09-17.25L143.09-17.25Q143.09-12.25 142.37-8.85 141.64-5.45 140.07-3.4 138.49-1.35 135.92-0.45 133.34 0.45 129.64 0.45L129.64 0.45Q126.09 0.45 123.07 0.33 120.04 0.2 117.34 0L117.34 0 119.24-3.6Q121.34-3.55 123.92-3.48 126.49-3.4 129.64-3.4L129.64-3.4Q132.94-3.4 134.89-4.67 136.84-5.95 137.67-8.97 138.49-12 138.49-17.25L138.49-17.25Q138.49-22.5 137.67-25.53 136.84-28.55 134.89-29.85 132.94-31.15 129.64-31.15L129.64-31.15Q126.54-31.15 124.07-31.1 121.59-31.05 119.24-31L119.24-31 117.34-34.5Q120.04-34.7 123.07-34.83 126.09-34.95 129.64-34.95ZM117.34-34.5L121.74-34.5 121.74 0 117.34 0 117.34-34.5ZM160.09-24.95L160.09-24.95Q165.59-24.95 168.06-22.95 170.54-20.95 170.54-17L170.54-17Q170.59-13.75 169.19-11.93 167.79-10.1 164.74-10.1L164.74-10.1 150.54-10.1 150.54-13.4 163.64-13.4Q165.29-13.4 165.79-14.53 166.29-15.65 166.29-17L166.29-17Q166.24-19.35 164.89-20.35 163.54-21.35 160.29-21.35L160.29-21.35Q157.64-21.35 156.11-20.58 154.59-19.8 153.96-17.88 153.34-15.95 153.34-12.5L153.34-12.5Q153.34-8.6 154.11-6.55 154.89-4.5 156.59-3.75 158.29-3 161.09-3L161.09-3Q163.04-3 165.36-3.18 167.69-3.35 169.54-3.6L169.54-3.6 169.99-0.75Q168.84-0.3 167.16 0 165.49 0.3 163.71 0.45 161.94 0.6 160.54 0.6L160.54 0.6Q156.34 0.6 153.79-0.68 151.24-1.95 150.06-4.78 148.89-7.6 148.89-12.25L148.89-12.25Q148.89-17.05 150.06-19.83 151.24-22.6 153.71-23.78 156.19-24.95 160.09-24.95ZM193.94-24.35L198.44-24.35 189.54-1.05Q189.34-0.55 188.96-0.28 188.59 0 188.04 0L188.04 0 184.19 0Q183.69 0 183.29-0.28 182.89-0.55 182.69-1.05L182.69-1.05 173.79-24.35 178.34-24.35 184.34-7.3Q184.74-6.25 185.09-5.15 185.44-4.05 185.79-3.05L185.79-3.05 186.44-3.05Q186.84-4.1 187.21-5.18 187.59-6.25 187.94-7.3L187.94-7.3 193.94-24.35ZM212.98-24.95L212.98-24.95Q218.48-24.95 220.96-22.95 223.43-20.95 223.43-17L223.43-17Q223.48-13.75 222.08-11.93 220.68-10.1 217.63-10.1L217.63-10.1 203.43-10.1 203.43-13.4 216.53-13.4Q218.18-13.4 218.68-14.53 219.18-15.65 219.18-17L219.18-17Q219.13-19.35 217.78-20.35 216.43-21.35 213.18-21.35L213.18-21.35Q210.53-21.35 209.01-20.58 207.48-19.8 206.86-17.88 206.23-15.95 206.23-12.5L206.23-12.5Q206.23-8.6 207.01-6.55 207.78-4.5 209.48-3.75 211.18-3 213.98-3L213.98-3Q215.93-3 218.26-3.18 220.58-3.35 222.43-3.6L222.43-3.6 222.88-0.75Q221.73-0.3 220.06 0 218.38 0.3 216.61 0.45 214.83 0.6 213.43 0.6L213.43 0.6Q209.23 0.6 206.68-0.68 204.13-1.95 202.96-4.78 201.78-7.6 201.78-12.25L201.78-12.25Q201.78-17.05 202.96-19.83 204.13-22.6 206.61-23.78 209.08-24.95 212.98-24.95ZM229.88-35L234.13-35 234.08-6.7Q234.08-5.1 234.96-4.28 235.83-3.45 237.43-3.45L237.43-3.45 239.78-3.45 240.28-0.2Q239.83 0 239 0.15 238.18 0.3 237.31 0.38 236.43 0.45 235.83 0.45L235.83 0.45Q233.13 0.45 231.5-1.15 229.88-2.75 229.88-5.75L229.88-5.75 229.88-35ZM254.98-24.95L254.98-24.95Q259.18-24.95 261.7-23.7 264.23-22.45 265.33-19.63 266.43-16.8 266.43-12.15L266.43-12.15Q266.43-7.5 265.33-4.67 264.23-1.85 261.7-0.6 259.18 0.65 254.98 0.65L254.98 0.65Q250.83 0.65 248.3-0.6 245.78-1.85 244.65-4.67 243.53-7.5 243.53-12.15L243.53-12.15Q243.53-16.8 244.65-19.63 245.78-22.45 248.3-23.7 250.83-24.95 254.98-24.95ZM254.98-21.35L254.98-21.35Q252.33-21.35 250.8-20.53 249.28-19.7 248.63-17.7 247.98-15.7 247.98-12.15L247.98-12.15Q247.98-8.6 248.63-6.6 249.28-4.6 250.8-3.78 252.33-2.95 254.98-2.95L254.98-2.95Q257.63-2.95 259.18-3.78 260.73-4.6 261.38-6.6 262.03-8.6 262.03-12.15L262.03-12.15Q262.03-15.7 261.38-17.7 260.73-19.7 259.18-20.53 257.63-21.35 254.98-21.35ZM287.03-24.95L287.03-24.95Q291.48-24.95 293.43-21.68 295.38-18.4 295.38-12.05L295.38-12.05Q295.38-7.35 294.38-4.58 293.38-1.8 291.35-0.6 289.32 0.6 286.18 0.6L286.18 0.6Q283.78 0.6 281.45-0.05 279.13-0.7 276.93-2.05L276.93-2.05 277.18-4.6Q279.53-3.95 281.32-3.53 283.13-3.1 285.13-3.1L285.13-3.1Q287.28-3.1 288.55-3.85 289.82-4.6 290.43-6.55 291.03-8.5 291.03-12.05L291.03-12.05Q291.03-15.5 290.48-17.5 289.93-19.5 288.75-20.38 287.57-21.25 285.63-21.25L285.63-21.25Q283.63-21.25 281.68-20.3 279.73-19.35 277.13-17.4L277.13-17.4 276.73-20.25Q278.07-21.7 279.78-22.75 281.48-23.8 283.35-24.38 285.23-24.95 287.03-24.95ZM273.07-24.35L276.57-24.35 277.03-19.3 277.32-18.65 277.32-3.05 277.13-2.45Q277.28-1.05 277.3 0.25 277.32 1.55 277.32 3L277.32 3 277.32 10.05 273.07 10.05 273.07-24.35ZM312.07-24.95L312.07-24.95Q317.57-24.95 320.05-22.95 322.52-20.95 322.52-17L322.52-17Q322.57-13.75 321.17-11.93 319.77-10.1 316.72-10.1L316.72-10.1 302.52-10.1 302.52-13.4 315.62-13.4Q317.27-13.4 317.77-14.53 318.27-15.65 318.27-17L318.27-17Q318.22-19.35 316.87-20.35 315.52-21.35 312.27-21.35L312.27-21.35Q309.62-21.35 308.1-20.58 306.57-19.8 305.95-17.88 305.32-15.95 305.32-12.5L305.32-12.5Q305.32-8.6 306.1-6.55 306.87-4.5 308.57-3.75 310.27-3 313.07-3L313.07-3Q315.02-3 317.35-3.18 319.67-3.35 321.52-3.6L321.52-3.6 321.97-0.75Q320.82-0.3 319.15 0 317.47 0.3 315.7 0.45 313.92 0.6 312.52 0.6L312.52 0.6Q308.32 0.6 305.77-0.68 303.22-1.95 302.05-4.78 300.87-7.6 300.87-12.25L300.87-12.25Q300.87-17.05 302.05-19.83 303.22-22.6 305.7-23.78 308.17-24.95 312.07-24.95ZM328.92-24.35L332.22-24.35 332.77-19.7 333.17-18.95 333.17 0 328.92 0 328.92-24.35ZM343.07-24.95L344.17-24.95 343.67-20.95 342.27-20.95Q340.12-20.95 337.97-20.08 335.82-19.2 332.72-17.6L332.72-17.6 332.37-20.25Q335.07-22.45 337.8-23.7 340.52-24.95 343.07-24.95L343.07-24.95Z" opacity="1" transform="matrix(1,0,0,1,0,0)" fill="#ed1703" class="slogan-text-1" data-fill-palette-color="quaternary" id="text-1"></path></svg></g></svg></g></svg></g></svg></g></svg></g></svg></g></svg></g></svg></g><defs></defs></svg><rect width="384" height="360" fill="none" stroke="none" visibility="hidden"></rect></g></svg></g></svg>